<svg xmlns="http://www.w3.org/2000/svg" version="1.1" xmlns:xlink="http://www.w3.org/1999/xlink" xmlns:svgjs="http://svgjs.dev/svgjs" width="1500" height="1500" viewBox="0 0 1500 1500"><rect width="1500" height="1500" fill="#000000"></rect><g transform="matrix(0.6666666666666666,0,0,0.6666666666666666,248.44237538940803,189.33333333333348)"><svg viewBox="0 0 321 360" data-background-color="#000000" preserveAspectRatio="xMidYMid meet" height="1682" width="1500" xmlns="http://www.w3.org/2000/svg" xmlns:xlink="http://www.w3.org/1999/xlink"><g id="tight-bounds" transform="matrix(1,0,0,1,0.5000025000000505,0)"><svg viewBox="0 0 320 360" height="360" width="320"><g><svg></svg></g><g><svg viewBox="0 0 320 360" height="360" width="320"><g><path transform="translate(-19.44751,3.1739) scale(3.53591,3.53591)" d="M67.6 10.7c0.2 0 1.8 0.8 2.7 1.1-0.3 0.1-1-0.2-1.8-0.5 0.2 0 0.6 0.1 1 0.3-0.2-0.2-1.7-0.7-1.9-0.9M52.7 7.6c0.3-0.1 3.8 0.4 5.4 0.5 0.1-0.1-0.2-0.1-0.6-0.2 0.5-0.1 1.5 0.2 2.2 0.3-2.1 0.1-4.4-0.5-6.4-0.3-0.7 0-0.2-0.2-0.6-0.3M49.8 7.6c1.8 0 3.2 0 0.6 0.2-0.3-0.1-0.7-0.1-0.6-0.2M78.1 15.9c0.2 0 1 0.9 1.4 1.2-0.1 0.1-0.9-0.7-1.3-1 0.1 0.1 0 0-0.1-0.2M76.1 14.6c-0.8-0.7-1.1-0.7-1.2-1.1 0.7 0.4 1.2 0.8 1.2 1.1M63.2 8.3c0.1-0.1 0.3 0.1 0.8 0.2-0.6-0.1-0.5 0-0.3 0.2-0.7-0.1-0.9-0.2-0.7-0.4 0.4 0.2 0.5 0.1 0.2 0M34.8 9.5c0-0.1 0.4-0.3 0.7-0.4-0.3 0.2-0.2 0.3 0.3 0.1 0 0.1-0.6 0.3-1 0.5 0.2-0.1 0.4-0.4 0-0.2M65.2 7.3c-0.3 0.1-1.4-0.5-2.5-0.7-0.6-0.2 2.4 0.5 2.5 0.7M6.2 56.7c0.6 2.5 0.2 2.4 0 0M6.3 41.7c0.1-0.4 0.2-1.5 0.3-1.4-0.3 2.4-0.8 3.5-0.9 5.3 0.3-1.6-0.1 0.9-0.2 1.5 0.1 0.8 0.1-0.5 0.3-0.3 0.2 0.3-0.4 4.5-0.2 2.2-0.2 2.1 0 4.4 0.4 5-0.5 3.2 2 10.4 2.5 11.9 0.1 0.1 0-0.5 0.2-0.1 0.2 1.3 1.1 2.2 1.4 3.6 0.3 0.4 1.5 2.6 1.7 3.1 0.4 0.8 0.6 0.7 1 1.5 1.2 2.3 3.1 4.5 4.9 6.6 5.8 6.8 14.7 12.4 24.6 14.4 9.9 2.1 20.3 0.6 28.4-3.3 0.5-0.3 0.4-0.4 1-0.6 2.8-0.9 6.2-3.8 8.1-4.9 0.9-1 3.3-2.7 3.6-3.7 1.7-1.4 3.4-3.7 4.3-5.2 0.5-0.8 0.9-0.8 1.1-1.3-0.1 0 1.6-2.1 2.1-3.3-0.2 0-0.5 0.6-0.5 0 3.6-6.9 5.6-16.2 4.5-22.6 0.2 7.9-1.8 16.7-5.6 22.3-1.7 3.6-5.2 7.5-8.4 10.3-0.5 0.5-1 1.1-1.6 1.5-1.9 1.6-4 2.9-6.2 4.1-5.2 2.9-11 5.4-17.8 5.5 11.7-1 22.2-6.9 28-14.1-4.4 4.3-6.3 6-11.2 8.5-0.4 0.7-3.7 2.1-5.9 2.7 1.3-0.6 4-1.6 4.9-2.4-7.3 3.5-15.4 5.5-23 4.4 2.9 0 7 0.1 10.9-0.6 0.6-0.2 0.9-0.4 1.6-0.5 7.6-1.7 14.9-5.4 20.1-10.6-3 2.7-7.5 5.9-10.4 6.9 2.7-1.5 7.6-4.4 9.2-6.6-3.2 3.2-9.2 6.4-13 7.8-0.6 0.1 0.4-0.4-0.6 0-1.2 0.3-0.7 0.3-1 0.5-4.6 1.3-9.9 2.4-14.3 2-0.8-0.1-1.1-0.3-1.8-0.3-0.8-0.1-1.5-0.1-2.4-0.1-3.5-0.4-7.3-1.8-10.1-3-1.5-0.7-3-1.2-4.5-2.1-1.2-0.7-2.2-1.5-3.2-2.3-3.8-2.8-7-5.6-10-9.6-5.4-7.5-8.2-16.9-7.8-26.2 0.4-9.3 4.1-18.4 10-25.1-0.3 0.3 0.4-0.7 1-1.3 0 0.2-0.1 0.5 0.6-0.2 0.6-0.7-0.2-0.2 0.1-0.6 6.2-6.8 17-12.3 28.1-12.5 0.4-0.3 1.1-0.7 1.9-0.5 0 0.1-0.5 0.1-0.5 0.1 1.1-0.1 2.1-0.1 2.6 0.1 0.1-0.1-0.4-0.2 0-0.2 0.7 0.2 0.9 0 1.3 0.2-0.3 0-0.6 0-0.8 0.1 2.5 0 4.1 0.6 6.6 0.8-1.3-0.3-1.6-0.3-2.6-0.6 1.1 0.2 1.6 0.4 2.1 0.3-0.2 0-0.1-0.3 0.1-0.2 2 0.5 2.2 0.7 4.3 1.4 0.2-0.2-0.9-0.3-1.2-0.6 2 0.7 3.8 1.2 5 2-0.4-0.3-1.6-0.7-2.5-1.1-0.1 0.1 0.3 0.2 0.4 0.4-1-0.5-2.4-1-3.8-1.2 1.2 0.3 2 0.7 2.5 0.9-1.1-0.2-2.5-0.9-4.1-1.2 2.6 0.8 7.5 2.6 10.5 4.2-1.1-0.7-2.4-1.2-3.1-1.6 0.6 0.1 1.3 0.5 1.3 0.3 0.7 0.3 1.6 1 2.1 1.1-0.9-0.6-2.7-1.5-3.3-1.8 7.5 3.4 14.2 9.1 18.5 16.4 0.4 0.7 1 2.3 1.5 2.5-0.1-0.5-0.5-0.8-0.9-1.6 0.2 0 0.2-0.3 0-0.6-0.4-0.5 0 0.4-0.4-0.1-1.8-3.3-4-6.2-7.4-9.4 1.9 1.8 0.5 0.5 0.1-0.1 2.6 2.3 5.6 6.2 6.9 8.2-0.2-0.3-0.3-0.5-0.2-0.5 2.4 4.1 3.9 7.8 5.4 13.1 0.1 0.1 0-0.4 0.2-0.1 1 4.2 1.3 7.7 1.2 10.9 0.8-5.4-1-13.8-4.2-20.4-0.4-0.8-0.4-0.2-0.8-1.1 0-0.3-0.3-0.9-0.5-1.3-4-6.6-8.9-11.3-14.7-15 0.4 0.2 1.2 0.8 1.2 0.7-10.8-7.1-23.3-8.1-33.6-5.9-0.7 0.3-1 0.6-1.8 1 1.5-0.5 2.4-0.6 3.8-0.9 0.3-0.3-1.3 0.1-0.6-0.2 0.1 0.1 1.4-0.2 1.7-0.1 0 0.1-0.4 0.2-0.5 0.3 3.3-0.7 6.7-0.8 9.6-0.6-1.7 0.1-4.8-0.2-5.8 0.3 1-0.1 2.4-0.2 3.3-0.1-1.2 0-3.4 0.1-4.4 0.2-0.1-0.1 1.6-0.3 0.5-0.3-0.5 0.1-1.3 0.1-1.6 0.4-8.6 0.8-17 5.3-22.9 10.6-1.2 1-2.6 2.1-3.5 3.2-2.2 2.5-3.6 5-5.2 7.2 1-2.1 3.2-5.3 5.8-8 2.6-2.7 5.4-5 6.9-6.2 0 0.4 2.4-1.5 3.3-2.1-0.6 0.5 0.4-0.2 0.6-0.1 3.2-1.9 5.8-2.6 8.7-3.7-0.7 0.2-1.3 0.4-1.4 0.3 0.7-0.2 1.1-0.4 1-0.5-2.8 0.8-7.2 2.7-10.7 4.8 6.3-4.3 14.3-6.9 22.2-7 7.9-0.2 15.6 1.8 21.7 5 4.1 1.8 8 5.1 11.1 8.3 0.9 0.8 0.2-0.2 1.5 1.2-0.4-0.2-0.7-0.4-0.2 0.2 0.8 0.9-0.2-0.7 1.1 0.9-0.1 0-0.5-0.5-0.5-0.3 3.5 3.1 6.2 8.7 7.8 12.4-0.4-1.5-1.4-3.6-2.2-5.1 2.4 4.4 3.2 7 4.2 10.9 0.4 0.3-0.2-1.4 0.2-0.6 0.1 0.6 0.2 2.5 0.6 2.8-0.3-1.9-0.8-4.2-1.2-4.6 0.3 0.2-0.5-2.3-1-2.9-0.2-1.6-1.6-4.4-2.8-6.5-4.3-8.4-12-15.3-20.6-19.1 0-0.2-0.5-0.4-0.7-0.6-8.5-3.6-18.7-4.6-28.5-2.3-9.9 2.4-19.2 8.1-25.8 16.3 0.3-1 2.8-2.9 2.9-3.7-2.9 3.1-6 7.2-8.1 11.6-2.2 4.4-3.4 8.9-3.9 12.2" fill="#ff0000" fill-rule="nonzero" stroke="none" stroke-width="1" stroke-linecap="butt" stroke-linejoin="miter" stroke-miterlimit="10" stroke-dasharray="" stroke-dashoffset="0" font-family="none" font-weight="none" font-size="none" text-anchor="none" style="mix-blend-mode: normal" data-fill-palette-color="tertiary"></path></g><g transform="matrix(1,0,0,1,107.00241913025417,90)"><svg viewBox="0 0 105.99516173949166 180" height="180" width="105.99516173949166"><g><svg viewBox="0 0 105.99516173949166 180" height="180" width="105.99516173949166"><g><svg viewBox="0 0 224 380.3947212146909" height="180" width="105.99516173949166"><g transform="matrix(1,0,0,1,0,213.62820139090235)"><svg viewBox="0 0 224 166.76651982378854" height="166.76651982378854" width="224"><g id="textblocktransform"><svg viewBox="0 0 224 166.76651982378854" height="166.76651982378854" width="224" id="textblock"><g><svg viewBox="0 0 224 166.76651982378854" height="166.76651982378854" width="224"><g transform="matrix(1,0,0,1,0,0)"><svg width="224" viewBox="1.71 -32.91 44.33 33.01" height="166.76651982378854" data-palette-color="#ff0000"><path d="M16.89-27.15L11.23-13.09 9.38-13.09 4.69-22.46 4.69-0.93 2.54-0.63Q2.44-2.34 2.37-4.93 2.29-7.52 2.22-10.52 2.15-13.53 2.1-16.7 2.05-19.87 2-22.8 1.95-25.73 1.88-28.17 1.81-30.62 1.71-32.13L1.71-32.13Q2.05-32.13 2.37-32.18 2.69-32.23 2.93-32.25 3.17-32.28 3.37-32.18 3.56-32.08 3.71-31.74L3.71-31.74 10.3-16.89 15.92-30.96Q16.02-31.2 16.28-31.37 16.55-31.54 16.87-31.69 17.19-31.84 17.53-31.91 17.87-31.98 18.12-31.98L18.12-31.98Q18.16-31.98 18.16-31.84 18.16-31.69 18.26-30.81 18.36-29.93 18.58-28.05 18.8-26.17 19.29-22.73 19.78-19.29 20.53-13.99 21.29-8.69 22.46-0.93L22.46-0.93Q22.27-0.49 21.95-0.34 21.63-0.2 21.36-0.24 21.09-0.29 20.87-0.46 20.65-0.63 20.61-0.93L20.61-0.93 16.89-27.15ZM46.04 0.1L44.19 0.1Q43.99-0.78 43.7-2.22 43.41-3.66 42.94-5.35 42.48-7.03 41.82-8.74 41.16-10.45 40.23-11.84 39.3-13.23 38.11-14.11 36.91-14.99 35.3-14.99L35.3-14.99Q34.67-14.99 33.64-14.89 32.61-14.79 31.64-14.58 30.66-14.36 29.93-13.96 29.2-13.57 29.2-13.04L29.2-13.04 29.2-0.63Q29-0.63 28.61-0.73 28.22-0.83 27.83-1 27.44-1.17 27.15-1.37 26.85-1.56 26.85-1.81L26.85-1.81 26.85-26.17Q26.27-26.07 25.83-25.66 25.39-25.24 25.12-24.66 24.85-24.07 24.7-23.49 24.56-22.9 24.51-22.41L24.51-22.41Q24.31-22.41 23.97-22.63 23.63-22.85 23.34-23.14 23.04-23.44 22.82-23.75 22.6-24.07 22.6-24.32L22.6-24.32Q22.6-25.54 23.34-26.68 24.07-27.83 25.24-28.78 26.41-29.74 27.85-30.49 29.29-31.25 30.76-31.79 32.22-32.32 33.54-32.62 34.86-32.91 35.79-32.91L35.79-32.91Q37.16-32.91 38.38-32.81 39.6-32.71 40.5-32.25 41.4-31.79 41.94-30.81 42.48-29.83 42.48-28.17L42.48-28.17Q42.48-26.66 41.94-25.22 41.4-23.78 40.57-22.46 39.74-21.14 38.72-19.95 37.69-18.75 36.67-17.72L36.67-17.72Q38.96-16.31 40.38-14.87 41.79-13.43 42.67-11.99 43.55-10.55 44.02-9.11 44.48-7.67 44.75-6.15 45.02-4.64 45.29-3.08 45.55-1.51 46.04 0.1L46.04 0.1ZM35.98-30.96L35.98-30.96Q35.64-30.96 35.03-30.93 34.42-30.91 33.64-30.81 32.86-30.71 32.1-30.52 31.35-30.32 30.69-29.98 30.03-29.64 29.61-29.17 29.2-28.71 29.2-28.03L29.2-28.03 29.2-15.63Q30.37-15.63 31.64-16.21 32.91-16.8 34.15-17.8 35.4-18.8 36.57-20.04 37.74-21.29 38.62-22.61 39.5-23.93 40.04-25.24 40.57-26.56 40.57-27.59L40.57-27.59Q40.57-28.71 40.21-29.37 39.84-30.03 39.21-30.4 38.57-30.76 37.74-30.86 36.91-30.96 35.98-30.96Z" opacity="1" transform="matrix(1,0,0,1,0,0)" fill="#ff0000" class="wordmark-text-0" data-fill-palette-color="primary" id="text-0"></path></svg></g></svg></g></svg></g></svg></g><g transform="matrix(1,0,0,1,42.784000000000006,0)"><svg viewBox="0 0 138.432 189.29296375213582" height="189.29296375213582" width="138.432"><g><svg xmlns="http://www.w3.org/2000/svg" xmlns:xlink="http://www.w3.org/1999/xlink" version="1.1" x="0" y="0" viewBox="25.997838067014793 17.18 48.00324481103419 65.63999999999999" style="enable-background:new 0 0 100 100;" xml:space="preserve" height="189.29296375213582" width="138.432" class="icon-icon-0" data-fill-palette-color="accent" id="icon-0"><path d="M72.79 59.35C71.48 53.14 68.92 45.54 64.16 44.67 63.97 44.63 63.49 44.54 62.91 44.54 61.7 44.54 60.72 44.92 60.07 45.64 58.73 47.13 59.39 49.35 59.53 49.78L59.61 50.03 59.81 50.2C62.91 53.01 65.11 56.4 66.19 60.01 68.1 66.41 67.17 68.71 66.06 69.51 65.79 69.71 65.47 69.85 65.11 69.93 63.41 70.33 61.61 69.05 61.22 67.24 60.47 63.77 59.54 60.31 58.43 56.93A103 103 0 0 0 52.92 43.48C54.4 42.3 57.47 39.32 57.48 34.72 57.49 31.7 56.17 29.42 55.2 28.15L56.85 17.69 49.03 23.62C47.66 23.01 45.69 22.39 43.31 22.39 42.83 22.39 42.35 22.42 41.87 22.47 40.11 22.66 38.37 23.2 36.79 24.05L29.46 17.18 30.94 28.5C30.08 29.72 28.88 31.95 28.81 34.86 28.75 37.27 29.32 39.36 30.48 41.08 31.78 42.99 33.52 43.96 34.78 44.67 35.29 44.96 36.06 45.39 36.16 45.54 36.12 45.6 35.93 45.76 35.77 45.89 35.36 46.23 34.79 46.7 34.17 47.54 33.32 48.7 32.76 50.07 32.49 51.61L32.31 63.08C32.23 67.96 29.63 71.66 27.42 73.94 26.36 75.07 25.84 76.72 26.04 78.37 26.23 79.93 27.04 81.27 28.25 82.05 29.03 82.55 29.96 82.82 30.94 82.82 31.72 82.82 32.52 82.65 33.25 82.33 34.38 81.83 35.72 81.59 37.33 81.59H57.67C59.47 81.59 61.08 80.38 61.61 78.61 61.86 77.77 62.61 77.17 63.46 77.12 66.1 76.96 69.74 76.16 72.09 73.27 74.98 69.73 74.06 65.38 72.79 59.35M42.06 35.32C41.4 37.38 39.45 38.82 37.33 38.82 36.71 38.82 36.12 38.69 35.58 38.45 33.48 37.53 32.38 34.99 33.06 32.66L33.34 31.7 42.37 34.34zM50.96 38.45C50.42 38.69 49.83 38.82 49.21 38.82 47.09 38.82 45.14 37.38 44.48 35.32L44.17 34.34 53.2 31.7 53.48 32.66C54.17 34.99 53.06 37.53 50.96 38.45" fill="#ff1010" data-fill-palette-color="accent"></path></svg></g></svg></g><g></g></svg></g></svg></g></svg></g></svg></g><defs></defs></svg><rect width="320" height="360" fill="none" stroke="none" visibility="hidden"></rect></g></svg></g></svg>